<svg width="240" height="240" viewBox="0 0 240 240" fill="none" xmlns="http://www.w3.org/2000/svg">
<g id="Group 48096340">
<path id="Ellipse 773" d="M121.558 238.442C56.1443 239.303 2.41844 186.972 1.55801 121.558C0.697587 56.1442 53.0284 2.41837 118.442 1.55794C183.856 0.697514 237.582 53.0283 238.442 118.442C239.303 183.856 186.972 237.582 121.558 238.442ZM118.519 7.3881C56.325 8.20618 6.57009 59.2874 7.38817 121.481C8.20624 183.675 59.2875 233.43 121.481 232.612C183.675 231.794 233.43 180.713 232.612 118.519C231.794 56.3249 180.713 6.57003 118.519 7.3881Z" fill="url(#paint0_linear_3_642)"/>
<path id="Ellipse 774" d="M121.389 208.081C72.8682 208.719 33.0172 169.903 32.379 121.382C31.7407 72.8619 70.557 33.0109 119.077 32.3727C167.598 31.7345 207.449 70.5507 208.087 119.071C208.725 167.592 169.909 207.443 121.389 208.081ZM119.134 36.6972C73.0022 37.304 36.0967 75.1934 36.7035 121.326C37.3103 167.458 75.1997 204.363 121.332 203.756C167.464 203.15 204.37 165.26 203.763 119.128C203.156 72.996 165.267 36.0904 119.134 36.6972Z" fill="url(#paint1_linear_3_642)"/>
<path id="Ellipse 775" d="M120.742 176.346C89.6224 176.756 64.0635 151.86 63.6541 120.741C63.2448 89.622 88.1401 64.0631 119.259 63.6538C150.378 63.2445 175.937 88.1397 176.347 119.259C176.756 150.378 151.861 175.937 120.742 176.346ZM119.296 66.4274C89.7083 66.8166 66.0385 91.1174 66.4277 120.705C66.8169 150.292 91.1177 173.962 120.705 173.573C150.292 173.184 173.962 148.883 173.573 119.295C173.184 89.708 148.883 66.0382 119.296 66.4274Z" fill="url(#paint2_linear_3_642)"/>
</g>
<defs>
<linearGradient id="paint0_linear_3_642" x1="238.442" y1="118.442" x2="1.55801" y2="121.558" gradientUnits="userSpaceOnUse">
<stop stop-color="#050259"/>
<stop offset="1" stop-color="#050259" stop-opacity="0"/>
</linearGradient>
<linearGradient id="paint1_linear_3_642" x1="208.087" y1="119.071" x2="32.379" y2="121.382" gradientUnits="userSpaceOnUse">
<stop stop-color="#050259"/>
<stop offset="1" stop-color="#050259" stop-opacity="0"/>
</linearGradient>
<linearGradient id="paint2_linear_3_642" x1="176.347" y1="119.259" x2="63.6541" y2="120.741" gradientUnits="userSpaceOnUse">
<stop stop-color="#050259"/>
<stop offset="1" stop-color="#050259" stop-opacity="0"/>
</linearGradient>
</defs>
</svg>
